<svg xmlns="http://www.w3.org/2000/svg" viewBox="0 0 80 100" width="80" height="100">
  <defs>
    <linearGradient id="pkgGrad" x1="0%" y1="0%" x2="100%" y2="100%">
      <stop offset="0%" stop-color="#f0f7ec"/>
      <stop offset="100%" stop-color="#dcecd4"/>
    </linearGradient>
    <linearGradient id="pkgLabel" x1="0%" y1="0%" x2="100%" y2="100%">
      <stop offset="0%" stop-color="#5a9e3a"/>
      <stop offset="100%" stop-color="#3d7a25"/>
    </linearGradient>
  </defs>
  <!-- Bag shape -->
  <path d="M15,25 L10,90 Q10,95 15,95 L65,95 Q70,95 70,90 L65,25Z" fill="url(#pkgGrad)" stroke="#c8dcc0" stroke-width="1.5"/>
  <!-- Fold top -->
  <path d="M15,25 L20,10 L60,10 L65,25" fill="white" stroke="#c8dcc0" stroke-width="1.5"/>
  <!-- Label -->
  <rect x="22" y="40" width="36" height="35" rx="4" fill="url(#pkgLabel)"/>
  <!-- Label text lines -->
  <rect x="28" y="48" width="24" height="3" rx="1.5" fill="white" opacity="0.9"/>
  <rect x="30" y="54" width="20" height="2" rx="1" fill="white" opacity="0.6"/>
  <rect x="28" y="62" width="24" height="2.5" rx="1" fill="white" opacity="0.5"/>
  <rect x="30" y="67" width="18" height="2" rx="1" fill="white" opacity="0.4"/>
  <!-- Leaf decoration on label -->
  <path d="M40,72 Q38,69 35,70 Q37,73 40,72Z" fill="white" opacity="0.7"/>
</svg>